<?xml version="1.0" encoding="utf-8"?>
<!-- Generator: Adobe Illustrator 26.0.0, SVG Export Plug-In . SVG Version: 6.00 Build 0)  -->
<svg version="1.1" id="Layer_1" xmlns="http://www.w3.org/2000/svg" xmlns:xlink="http://www.w3.org/1999/xlink" x="0px" y="0px"
	 viewBox="0 0 56 55.4" style="enable-background:new 0 0 56 55.4;" xml:space="preserve">
<style type="text/css">
	.st0{opacity:0;fill:#FEF7EC;}
	.st1{fill:url(#SVGID_1_);}
</style>
<path class="st0" d="M0,0h56l0,0v55.3l0,0H0l0,0V0L0,0z"/>
<g id="_2761b6ec-43d2-469f-b96c-df2e710d3671">
	
		<linearGradient id="SVGID_1_" gradientUnits="userSpaceOnUse" x1="-446.3681" y1="840.4238" x2="-445.5981" y2="840.4238" gradientTransform="matrix(55.76 26 26 -55.76 3030.3499 58484.9258)">
		<stop  offset="0" style="stop-color:#E46725"/>
		<stop  offset="1" style="stop-color:#EAC51D"/>
	</linearGradient>
	<path class="st1" d="M7,30.9L0,43c0,0.1,0,0.1,0,0.2l7,12.1c0,0.1,0.1,0.1,0.2,0.1h13.9c0.1,0,0.1,0,0.2-0.1l7-12.1
		c0-0.1,0-0.1,0-0.2l-7-12.1c0-0.1-0.1-0.1-0.2-0.1H7.2C7.1,30.8,7.1,30.8,7,30.9z M21.3,24.5l7-12.1c0-0.1,0-0.1,0-0.2l-7-12.1
		C21.2,0,21.2,0,21.1,0H7.2C7.1,0,7.1,0,7,0.1L0,12.2c0,0.1,0,0.1,0,0.2l7,12.1c0,0.1,0.1,0.1,0.2,0.1h13.9
		C21.2,24.6,21.3,24.6,21.3,24.5z M48.8,15.4H34.9c-0.1,0-0.1,0-0.2,0.1l-7,12.1c0,0.1,0,0.1,0,0.2l7,12.1c0,0.1,0.1,0.1,0.2,0.1
		h13.9c0.1,0,0.1,0,0.2-0.1l7-12.1c0-0.1,0-0.1,0-0.2l-7-12.1C49,15.4,48.9,15.4,48.8,15.4z"/>
</g>
</svg>
