<svg data-v-423bf9ae="" xmlns="http://www.w3.org/2000/svg" viewBox="0 0 212.79121406726247 60" class="font"><!----><!----><!----><g data-v-423bf9ae="" id="b0c2c44e-1955-4a65-b8ad-bec1fbc53e7d" fill="white" transform="matrix(4.395604518446158,0,0,4.395604518446158,-0.6153859706058,-13.846155129140065)"><path d="M9.83 13.30L10.82 13.30L8.61 3.15L5.49 11.30L2.37 3.15L0.14 13.30L1.15 13.30L2.62 6.52L5.49 13.86L8.34 6.52ZM16.91 10.22C16.91 10.82 16.70 11.34 16.29 11.79C15.87 12.24 15.36 12.46 14.74 12.46C14.13 12.46 13.61 12.24 13.20 11.79C12.78 11.34 12.57 10.82 12.57 10.22C12.57 9.62 12.78 9.10 13.20 8.65C13.61 8.20 14.13 7.98 14.74 7.98C15.36 7.98 15.87 8.20 16.29 8.65C16.70 9.10 16.91 9.62 16.91 10.22ZM17.89 13.30L17.89 7.14L16.91 7.14L16.91 8.19C16.86 8.12 16.80 8.05 16.74 7.98C16.16 7.33 15.44 7.00 14.59 7.00C13.74 7.00 13.02 7.33 12.44 7.98C11.87 8.61 11.59 9.36 11.59 10.22C11.59 11.08 11.87 11.83 12.44 12.46C13.02 13.11 13.74 13.44 14.59 13.44C15.44 13.44 16.16 13.11 16.74 12.46C16.80 12.39 16.86 12.32 16.91 12.25L16.91 13.30ZM20.97 16.80L20.97 12.25C21.03 12.32 21.09 12.39 21.15 12.46C21.73 13.11 22.45 13.44 23.30 13.44C24.15 13.44 24.86 13.11 25.45 12.46C26.01 11.83 26.29 11.08 26.29 10.22C26.29 9.36 26.01 8.61 25.45 7.98C24.86 7.33 24.15 7.00 23.30 7.00C22.45 7.00 21.73 7.33 21.15 7.98C21.09 8.05 21.03 8.12 20.97 8.19L20.97 7.14L19.99 7.14L19.99 16.80ZM25.31 10.22C25.31 10.82 25.10 11.34 24.69 11.79C24.27 12.24 23.76 12.46 23.14 12.46C22.53 12.46 22.01 12.24 21.59 11.79C21.18 11.34 20.97 10.82 20.97 10.22C20.97 9.62 21.18 9.10 21.59 8.65C22.01 8.20 22.53 7.98 23.14 7.98C23.76 7.98 24.27 8.20 24.69 8.65C25.10 9.10 25.31 9.62 25.31 10.22ZM28.97 5.01C28.84 4.89 28.70 4.83 28.53 4.83C28.35 4.83 28.21 4.89 28.08 5.01C27.96 5.13 27.90 5.28 27.90 5.45C27.90 5.63 27.96 5.77 28.08 5.89C28.21 6.02 28.35 6.08 28.53 6.08C28.70 6.08 28.84 6.02 28.97 5.89C29.09 5.77 29.15 5.63 29.15 5.45C29.15 5.28 29.09 5.13 28.97 5.01ZM29.02 13.30L29.02 7.14L28.04 7.14L28.04 13.30ZM36.08 10.22C36.08 10.82 35.87 11.34 35.45 11.79C35.04 12.24 34.52 12.46 33.91 12.46C33.29 12.46 32.78 12.24 32.36 11.79C31.95 11.34 31.74 10.82 31.74 10.22C31.74 9.62 31.95 9.10 32.36 8.65C32.78 8.20 33.29 7.98 33.91 7.98C34.52 7.98 35.04 8.20 35.45 8.65C35.87 9.10 36.08 9.62 36.08 10.22ZM37.06 13.30L37.06 7.14L36.08 7.14L36.08 8.19C36.02 8.12 35.96 8.05 35.90 7.98C35.32 7.33 34.60 7.00 33.75 7.00C32.90 7.00 32.19 7.33 31.61 7.98C31.04 8.61 30.76 9.36 30.76 10.22C30.76 11.08 31.04 11.83 31.61 12.46C32.19 13.11 32.90 13.44 33.75 13.44C34.60 13.44 35.32 13.11 35.90 12.46C35.96 12.39 36.02 12.32 36.08 12.25L36.08 13.30ZM42.32 8.41L42.32 7.14C42.13 7.06 41.92 7.01 41.71 7.01C41.02 7.01 40.51 7.40 40.18 8.16L40.14 8.41L40.14 7.14L39.16 7.14L39.16 13.30L40.14 13.30L40.14 10.22C40.14 9.71 40.25 9.26 40.49 8.86C40.61 8.64 40.76 8.47 40.94 8.32C41.13 8.18 41.34 8.11 41.60 8.11C41.86 8.11 42.10 8.21 42.32 8.41ZM44.30 16.80L48.55 7.14L47.46 7.14L45.70 11.27L43.72 7.14L42.60 7.14L45.18 12.29L43.11 16.80Z"></path></g><!----><!----></svg>