<svg width="784" height="293" xmlns="http://www.w3.org/2000/svg" xmlns:xlink="http://www.w3.org/1999/xlink" overflow="hidden"><defs><clipPath id="clip0"><rect x="471" y="106" width="784" height="293"/></clipPath><clipPath id="clip1"><rect x="471" y="106" width="781" height="282"/></clipPath><clipPath id="clip2"><rect x="78" y="94" width="1174" height="294"/></clipPath><linearGradient x1="-43.0444" y1="91.4797" x2="184.434" y2="197.571" gradientUnits="userSpaceOnUse" spreadMethod="pad" id="fill3"><stop offset="0" stop-color="#E46725"/><stop offset="1" stop-color="#EAC51D"/></linearGradient></defs><g clip-path="url(#clip0)" transform="translate(-471 -106)"><g clip-path="url(#clip1)"><g clip-path="url(#clip2)"><path d="M549.971 215.644 563.747 215.644C564.277 215.644 564.807 215.114 564.807 214.584L564.807 214.584 530.367 57.2224C530.367 56.6926 529.837 56.1628 529.307 56.6926 528.778 56.6926 528.778 57.2224 528.778 57.2224L481.092 181.204C481.092 181.734 480.033 181.734 480.033 181.734L479.503 181.204 431.817 56.6926C431.817 56.1628 431.288 55.6329 430.758 56.1628 430.228 56.1628 430.228 56.6926 430.228 56.6926L395.788 214.054C395.788 214.584 395.788 215.114 396.318 215.114L396.318 215.114 410.094 215.114C410.624 215.114 411.154 214.584 411.154 214.054L433.407 110.206C433.407 109.676 433.937 109.146 434.467 109.676 434.996 109.676 434.996 110.206 434.996 110.206L478.443 221.472C478.443 222.002 479.503 222.002 479.503 222.002L480.033 221.472 523.479 110.206C523.479 109.676 524.009 109.146 524.539 109.676 525.069 109.676 525.069 110.206 525.069 110.206L548.382 214.054C548.911 215.114 549.441 215.644 549.971 215.644ZM661.767 166.369C661.767 175.906 658.058 184.383 651.7 191.271 638.984 205.047 617.79 205.577 604.014 192.861 603.485 192.331 602.955 191.801 602.425 191.271 589.179 177.495 589.179 155.242 602.425 141.467 615.141 127.691 636.335 127.161 650.11 139.877 650.64 140.407 651.17 140.937 651.7 141.467 658.588 148.354 661.767 157.362 661.767 166.369ZM677.662 215.114 677.662 118.684C677.662 118.154 677.132 117.624 676.602 117.624L662.826 117.624C662.297 117.624 661.767 118.154 661.767 118.684L661.767 134.579C661.237 133.519 660.177 132.459 659.118 131.4 642.693 112.326 614.081 110.206 595.007 126.631 593.418 128.221 591.828 129.81 590.239 131.4 572.224 151.533 572.224 182.264 590.239 202.928 606.664 222.002 635.275 224.121 654.349 207.696 655.939 206.107 657.528 204.517 659.118 202.928 660.177 201.868 661.237 200.808 661.767 199.749L661.767 215.644C661.767 216.174 662.297 216.703 662.826 216.703L676.602 216.703C677.132 216.174 677.662 215.644 677.662 215.114L677.662 215.114ZM725.877 271.807C726.407 271.807 726.937 271.277 726.937 270.747L726.937 199.219 729.586 202.398C746.011 221.472 774.622 223.591 793.696 207.166 795.286 205.577 796.875 204.517 798.465 202.398 816.479 181.734 816.479 151.533 798.465 130.87 782.04 111.796 753.429 109.676 734.354 126.101 732.765 127.691 731.175 128.75 729.586 130.87L726.937 134.049 726.937 118.154C726.937 117.624 726.407 117.094 725.877 117.094L712.101 117.094C711.571 117.094 711.042 117.624 711.042 118.154L711.042 118.154 711.042 270.217C711.042 270.747 711.571 271.277 712.101 271.277L712.101 271.277 725.877 271.807ZM795.816 166.899C795.816 176.436 792.107 184.913 785.749 191.801 773.033 205.577 751.309 206.107 738.063 193.391 737.533 192.861 737.004 192.331 736.474 191.801 723.228 177.495 723.228 155.772 736.474 141.996 749.19 128.221 770.913 127.691 784.159 140.407 784.689 140.937 785.219 141.467 785.749 141.996 792.107 148.354 795.816 157.362 795.816 166.899L795.816 166.899ZM854.098 83.7143C851.978 82.1248 849.859 81.0651 847.21 81.0651 844.561 81.0651 841.911 82.1248 839.792 83.7143 837.673 85.8336 837.143 87.953 837.143 90.6022 837.143 93.2514 838.203 95.9006 839.792 97.4901 841.382 99.6094 844.031 100.669 847.21 100.669 852.508 100.669 857.277 95.9006 857.277 90.6022 857.277 87.953 855.687 85.3038 854.098 83.7143L854.098 83.7143ZM855.157 215.114 855.157 118.684C855.157 118.154 854.628 117.624 854.098 117.624L840.322 117.624C839.792 117.624 839.262 118.154 839.262 118.684L839.262 118.684 839.262 215.114C839.262 215.644 839.792 216.174 840.322 216.174L840.322 216.174 854.098 216.174C854.628 215.644 854.628 215.114 855.157 215.114L855.157 215.114ZM967.483 166.899C967.483 176.436 963.774 185.443 957.416 191.801 944.7 205.577 923.506 206.107 909.731 193.391 909.201 192.861 908.671 192.331 908.141 191.801 894.895 177.495 894.895 155.772 908.141 141.996 920.857 128.221 942.051 127.691 955.826 140.407 956.356 140.937 956.886 141.467 957.416 141.996 963.774 148.354 966.953 157.362 967.483 166.899L967.483 166.899ZM982.848 215.114 982.848 118.684C982.848 118.154 982.318 117.624 981.789 117.624L968.013 117.624C967.483 117.624 966.953 118.154 966.953 118.684L966.953 118.684 966.953 134.579 964.304 130.87C955.826 120.803 943.11 114.975 929.864 114.975 916.618 114.975 904.432 120.803 895.955 130.87 877.94 151.004 877.94 181.734 895.955 202.398 904.432 212.465 916.618 218.293 929.864 218.293 943.11 218.293 955.826 212.465 964.304 202.398L966.953 199.219 966.953 215.114C966.953 215.644 967.483 216.174 968.013 216.174L968.013 216.174 981.789 216.174C982.318 216.174 982.848 215.644 982.848 215.114L982.848 215.114 982.848 215.114ZM1066.56 136.168 1066.56 118.684C1066.56 118.154 1066.56 118.154 1066.03 117.624 1063.38 116.564 1060.2 116.034 1057.03 115.505 1045.9 115.505 1037.95 121.863 1032.65 134.049L1032.12 138.288 1032.12 119.213C1032.12 118.684 1031.59 118.154 1031.06 118.154L1017.29 118.154C1016.76 118.154 1016.23 118.684 1016.23 119.213L1016.23 215.114C1016.23 215.644 1016.76 216.174 1017.29 216.174L1031.06 216.174C1031.59 216.174 1032.12 215.644 1032.12 215.114L1032.12 166.899C1032.12 159.481 1033.71 152.063 1037.42 145.175 1039.01 141.996 1041.66 138.817 1044.84 136.698 1048.02 134.579 1051.73 132.989 1055.44 133.519 1059.14 133.519 1062.32 134.579 1065.5 136.698 1065.5 136.698 1066.03 136.698 1066.56 136.168 1066.56 136.168 1066.56 135.638 1066.56 136.168L1066.56 136.168ZM1098.35 270.747 1165.11 118.684C1165.11 118.154 1165.11 117.624 1164.58 117.094 1164.58 117.094 1164.58 117.094 1164.05 117.094L1148.69 117.094C1148.16 117.094 1148.16 117.094 1147.63 117.624L1120.61 180.674C1120.61 181.204 1120.08 181.204 1119.55 181.204 1119.02 181.204 1119.02 180.674 1119.02 180.674L1088.82 117.624C1088.82 117.094 1088.29 117.094 1087.76 117.094L1071.86 117.094C1071.33 117.094 1070.8 117.624 1070.8 118.154L1070.8 118.684 1111.07 198.689C1111.07 199.219 1111.07 199.219 1111.07 199.749L1078.75 269.687C1078.75 270.217 1078.75 270.747 1079.28 270.747L1079.81 270.747 1096.76 270.747C1097.82 271.277 1097.82 271.277 1098.35 270.747L1098.35 270.747Z" fill="#332411" transform="matrix(1.0017 0 0 1 81.4578 94.5203)"/><path d="M37.0886 163.19 0 227.3C0 227.83 0 227.83 0 228.36L37.0886 292.47C37.0886 293 37.6184 293 38.1483 293L111.796 293C112.326 293 112.326 293 112.855 292.47L149.944 228.36C149.944 227.83 149.944 227.83 149.944 227.3L112.855 163.19C112.855 162.66 112.326 162.66 111.796 162.66L38.1483 162.66C37.6184 162.66 37.6184 162.66 37.0886 163.19ZM112.855 129.81 149.944 65.6998C149.944 65.17 149.944 65.17 149.944 64.6401L112.855 0.529837C112.855 0 112.326 0 111.796 0L38.1483 0C37.6184 0 37.6184 0 37.0886 0.529837L0 64.6401C0 65.17 0 65.17 0 65.6998L37.0886 129.81C37.0886 130.34 37.6184 130.34 38.1483 130.34L111.796 130.34C112.326 130.34 112.326 129.81 112.855 129.81ZM258.561 81.0651 184.913 81.0651C184.383 81.0651 184.383 81.0651 183.854 81.5949L146.765 145.705C146.765 146.235 146.765 146.235 146.765 146.765L183.854 210.875C183.854 211.405 184.383 211.405 184.913 211.405L258.561 211.405C259.09 211.405 259.09 211.405 259.62 210.875L296.709 146.765C296.709 146.235 296.709 146.235 296.709 145.705L259.62 81.5949C259.62 81.0651 259.09 81.0651 258.561 81.0651Z" fill="url(#fill3)" transform="matrix(1.0017 0 0 1 81.4578 94.5203)"/></g></g></g></svg>