<?xml version="1.0" encoding="utf-8"?>
<!-- Generator: Adobe Illustrator 26.0.0, SVG Export Plug-In . SVG Version: 6.00 Build 0)  -->
<svg version="1.1" id="Layer_1" xmlns="http://www.w3.org/2000/svg" xmlns:xlink="http://www.w3.org/1999/xlink" x="0px" y="0px"
	 viewBox="0 0 219.9 55.3" style="enable-background:new 0 0 219.9 55.3;" xml:space="preserve">
<style type="text/css">
	.st0{opacity:0;fill:#FEF7EC;}
	.st1{fill:#332411;}
	.st2{fill:url(#SVGID_1_);}
</style>
<path class="st0" d="M0.1,0h219.6c0.1,0,0.1,0,0.1,0v55.2c0,0-0.1,0-0.1,0H0.1c-0.1,0-0.1,0-0.1,0V0C0,0,0.1,0,0.1,0z"/>
<g id="_18e19c06-a5d8-4431-95dc-a57f6e920eb5">
	<path class="st1" d="M103.8,40.7h2.6c0.1,0,0.2-0.1,0.2-0.2l0,0l-6.5-29.7c0-0.1-0.1-0.2-0.2-0.1c-0.1,0-0.1,0.1-0.1,0.1l-9,23.4
		c0,0.1-0.2,0.1-0.2,0.1l-0.1-0.1l-9-23.5c0-0.1-0.1-0.2-0.2-0.1c-0.1,0-0.1,0.1-0.1,0.1l-6.5,29.7c0,0.1,0,0.2,0.1,0.2l0,0h2.6
		c0.1,0,0.2-0.1,0.2-0.2l4.2-19.6c0-0.1,0.1-0.2,0.2-0.1c0.1,0,0.1,0.1,0.1,0.1l8.2,21c0,0.1,0.2,0.1,0.2,0.1l0.1-0.1l8.2-21
		c0-0.1,0.1-0.2,0.2-0.1c0.1,0,0.1,0.1,0.1,0.1l4.4,19.6C103.6,40.6,103.7,40.7,103.8,40.7z M124.9,31.4c0,1.8-0.7,3.4-1.9,4.7
		c-2.4,2.6-6.4,2.7-9,0.3c-0.1-0.1-0.2-0.2-0.3-0.3c-2.5-2.6-2.5-6.8,0-9.4c2.4-2.6,6.4-2.7,9-0.3c0.1,0.1,0.2,0.2,0.3,0.3
		C124.3,28,124.9,29.7,124.9,31.4z M127.9,40.6V22.4c0-0.1-0.1-0.2-0.2-0.2h-2.6c-0.1,0-0.2,0.1-0.2,0.2v3c-0.1-0.2-0.3-0.4-0.5-0.6
		c-3.1-3.6-8.5-4-12.1-0.9c-0.3,0.3-0.6,0.6-0.9,0.9c-3.4,3.8-3.4,9.6,0,13.5c3.1,3.6,8.5,4,12.1,0.9c0.3-0.3,0.6-0.6,0.9-0.9
		c0.2-0.2,0.4-0.4,0.5-0.6v3c0,0.1,0.1,0.2,0.2,0.2h2.6C127.8,40.8,127.9,40.7,127.9,40.6L127.9,40.6z M137,51.3
		c0.1,0,0.2-0.1,0.2-0.2V37.6l0.5,0.6c3.1,3.6,8.5,4,12.1,0.9c0.3-0.3,0.6-0.5,0.9-0.9c3.4-3.9,3.4-9.6,0-13.5
		c-3.1-3.6-8.5-4-12.1-0.9c-0.3,0.3-0.6,0.5-0.9,0.9l-0.5,0.6v-3c0-0.1-0.1-0.2-0.2-0.2h-2.6c-0.1,0-0.2,0.1-0.2,0.2l0,0V51
		c0,0.1,0.1,0.2,0.2,0.2l0,0L137,51.3z M150.2,31.5c0,1.8-0.7,3.4-1.9,4.7c-2.4,2.6-6.5,2.7-9,0.3c-0.1-0.1-0.2-0.2-0.3-0.3
		c-2.5-2.7-2.5-6.8,0-9.4c2.4-2.6,6.5-2.7,9-0.3c0.1,0.1,0.2,0.2,0.3,0.3C149.5,28,150.2,29.7,150.2,31.5L150.2,31.5z M161.2,15.8
		c-0.4-0.3-0.8-0.5-1.3-0.5s-1,0.2-1.4,0.5c-0.4,0.4-0.5,0.8-0.5,1.3s0.2,1,0.5,1.3c0.3,0.4,0.8,0.6,1.4,0.6c1,0,1.9-0.9,1.9-1.9
		C161.8,16.6,161.5,16.1,161.2,15.8L161.2,15.8z M161.4,40.6V22.4c0-0.1-0.1-0.2-0.2-0.2h-2.6c-0.1,0-0.2,0.1-0.2,0.2l0,0v18.2
		c0,0.1,0.1,0.2,0.2,0.2l0,0h2.6C161.3,40.7,161.3,40.6,161.4,40.6L161.4,40.6z M182.6,31.5c0,1.8-0.7,3.5-1.9,4.7
		c-2.4,2.6-6.4,2.7-9,0.3c-0.1-0.1-0.2-0.2-0.3-0.3c-2.5-2.7-2.5-6.8,0-9.4c2.4-2.6,6.4-2.7,9-0.3c0.1,0.1,0.2,0.2,0.3,0.3
		C181.9,28,182.5,29.7,182.6,31.5L182.6,31.5z M185.5,40.6V22.4c0-0.1-0.1-0.2-0.2-0.2h-2.6c-0.1,0-0.2,0.1-0.2,0.2l0,0v3l-0.5-0.7
		c-1.6-1.9-4-3-6.5-3s-4.8,1.1-6.4,3c-3.4,3.8-3.4,9.6,0,13.5c1.6,1.9,3.9,3,6.4,3s4.9-1.1,6.5-3l0.5-0.6v3c0,0.1,0.1,0.2,0.2,0.2
		l0,0h2.6C185.4,40.8,185.5,40.7,185.5,40.6L185.5,40.6L185.5,40.6z M201.3,25.7v-3.3c0-0.1,0-0.1-0.1-0.2c-0.5-0.2-1.1-0.3-1.7-0.4
		c-2.1,0-3.6,1.2-4.6,3.5l-0.1,0.8v-3.6c0-0.1-0.1-0.2-0.2-0.2H192c-0.1,0-0.2,0.1-0.2,0.2v18.1c0,0.1,0.1,0.2,0.2,0.2h2.6
		c0.1,0,0.2-0.1,0.2-0.2v-9.1c0-1.4,0.3-2.8,1-4.1c0.3-0.6,0.8-1.2,1.4-1.6c0.6-0.4,1.3-0.7,2-0.6c0.7,0,1.3,0.2,1.9,0.6
		C201.1,25.8,201.2,25.8,201.3,25.7C201.3,25.7,201.3,25.6,201.3,25.7L201.3,25.7z M207.3,51.1l12.6-28.7c0-0.1,0-0.2-0.1-0.3
		c0,0,0,0-0.1,0h-2.9c-0.1,0-0.1,0-0.2,0.1l-5.1,11.9c0,0.1-0.1,0.1-0.2,0.1c-0.1,0-0.1-0.1-0.1-0.1l-5.7-11.9
		c0-0.1-0.1-0.1-0.2-0.1h-3c-0.1,0-0.2,0.1-0.2,0.2v0.1l7.6,15.1c0,0.1,0,0.1,0,0.2l-6.1,13.2c0,0.1,0,0.2,0.1,0.2h0.1h3.2
		C207.2,51.2,207.2,51.2,207.3,51.1L207.3,51.1z"/>
</g>
<g id="_2761b6ec-43d2-469f-b96c-df2e710d3671">
	
		<linearGradient id="SVGID_1_" gradientUnits="userSpaceOnUse" x1="-327.0061" y1="724.8429" x2="-326.2361" y2="724.8429" gradientTransform="matrix(55.76 26 26 -55.76 -620.1807 48936.6641)">
		<stop  offset="0" style="stop-color:#E46725"/>
		<stop  offset="1" style="stop-color:#EAC51D"/>
	</linearGradient>
	<path class="st2" d="M7,30.8L0,42.9C0,43,0,43,0,43.1l7,12.1c0,0.1,0.1,0.1,0.2,0.1h13.9c0.1,0,0.1,0,0.2-0.1l7-12.1
		c0-0.1,0-0.1,0-0.2l-7-12.1c0-0.1-0.1-0.1-0.2-0.1H7.2C7.1,30.7,7.1,30.7,7,30.8z M21.3,24.5l7-12.1c0-0.1,0-0.1,0-0.2l-7-12.1
		C21.3,0,21.2,0,21.1,0H7.2C7.1,0,7.1,0,7,0.1L0,12.2c0,0.1,0,0.1,0,0.2l7,12.1c0,0.1,0.1,0.1,0.2,0.1h13.9
		C21.2,24.6,21.2,24.5,21.3,24.5z M48.8,15.3H34.9c-0.1,0-0.1,0-0.2,0.1l-7,12.1c0,0.1,0,0.1,0,0.2l7,12.1c0,0.1,0.1,0.1,0.2,0.1
		h13.9c0.1,0,0.1,0,0.2-0.1l7-12.1c0-0.1,0-0.1,0-0.2l-7-12.1C49,15.3,48.9,15.3,48.8,15.3z"/>
</g>
</svg>
